<svg width="273" height="237" viewBox="0 0 273 237" fill="none" xmlns="http://www.w3.org/2000/svg">
    <g clip-path="url(#clip0)">
    <path d="M6.61608 0.724854H19.9481C26.6118 0.724854 33.9318 3.61952 32.5049 12.6993C31.7581 17.4347 28.1243 21.1067 23.3489 21.1067L23.3299 21.2164C28.8139 21.6599 31.2159 25.1125 30.3265 30.7397C29.5084 35.9186 25.3275 42.7142 15.2203 42.7142H0L6.61608 0.724854ZM13.703 33.6344C16.2001 33.6344 18.6163 32.4088 19.0634 29.5713C19.5105 26.7291 17.5271 25.5608 14.9207 25.5608H14.0312L12.7613 33.6344H13.703ZM16.0432 17.0389C18.3738 17.0389 20.6901 16.0899 21.1229 13.3622C21.5177 10.8586 19.9624 9.79989 17.6318 9.79989H16.5188L15.3773 17.0389H16.0432Z" fill="#E0E36F"/>
    <path d="M33.8795 42.7142L40.4955 0.724854H51.8252L46.7739 32.7998H55.2735L53.7134 42.7142H33.8795Z" fill="#E0E36F"/>
    <path d="M76.4773 42.7142L76.4963 37.3111H68.8862L67.093 42.7142H55.4305L72.1015 0.724854H85.9329L88.2017 42.7142H76.4773ZM76.5677 28.403L76.8816 18.6556C76.9625 16.0375 77.1575 13.367 77.2954 10.7489H77.186C76.4393 13.367 75.7401 16.0375 74.8839 18.6556L71.7923 28.403H76.5677Z" fill="#E0E36F"/>
    <path d="M119.536 13.0331C118.171 11.4737 116.978 10.582 114.647 10.582C108.759 10.582 106.29 17.0962 105.562 21.7171C104.792 26.6195 105.253 32.8523 110.918 32.8523C113.472 32.8523 115.241 31.8508 117.339 30.1818L114.823 41.9321C112.388 42.9335 110.252 43.4343 107.755 43.4343C98.4801 43.4343 91.7071 36.3621 93.9711 21.9937C96.9296 3.17602 110.314 0 115.812 0C117.81 0 119.712 0.276591 121.43 1.00145L119.536 13.0331Z" fill="#E0E36F"/>
    <path d="M140.017 42.7142L135.998 23.4482H136.055H135.946L132.911 42.7142H121.582L128.198 0.724854H139.527L136.707 18.5983H136.65H136.707L136.578 18.708L136.598 18.5983H136.764L145.801 0.724854H157.744L145.497 20.9923L152.184 42.7094H140.017V42.7142Z" fill="#E0E36F"/>
    <path d="M6.61608 67.5501H19.9481C26.6118 67.5501 33.9318 70.4448 32.5049 79.5246C31.7581 84.26 28.1243 87.932 23.3489 87.932L23.3299 88.0417C28.8139 88.4852 31.2159 91.9378 30.3265 97.565C29.5084 102.744 25.3275 109.539 15.2203 109.539H0L6.61608 67.5501ZM13.703 100.46C16.2001 100.46 18.6163 99.234 19.0634 96.3966C19.5105 93.5544 17.5271 92.386 14.9207 92.386H14.0312L12.7613 100.46H13.703ZM16.0432 83.8642C18.3738 83.8642 20.6901 82.9152 21.1229 80.1874C21.5177 77.6838 19.9624 76.6251 17.6318 76.6251H16.5188L15.3773 83.8642H16.0432Z" fill="#E0E36F"/>
    <path d="M33.8795 109.535L40.4955 67.5453H51.8251L46.7692 99.6203H55.2687L53.7087 109.535H33.8795V109.535Z" fill="#E0E36F"/>
    <path d="M76.4773 109.535L76.4963 104.132H68.8862L67.093 109.535H55.4305L72.1015 67.5453H85.9329L88.2017 109.535H76.4773ZM76.5677 95.2235L76.8816 85.4761C76.9625 82.858 77.1575 80.1874 77.2954 77.5694H77.186C76.4393 80.1874 75.7401 82.858 74.8839 85.4761L71.7923 95.2235H76.5677Z" fill="#E0E36F"/>
    <path d="M119.536 79.8536C118.171 78.2942 116.978 77.4024 114.647 77.4024C108.759 77.4024 106.29 83.9166 105.562 88.5376C104.792 93.4399 105.253 99.6728 110.918 99.6728C113.472 99.6728 115.242 98.6713 117.339 97.0022L114.823 108.753C112.388 109.754 110.252 110.255 107.755 110.255C98.4801 110.255 91.7071 103.183 93.9711 88.8142C96.9391 69.9917 110.323 66.8157 115.822 66.8157C117.819 66.8157 119.722 67.0923 121.439 67.8172L119.536 79.8536Z" fill="#E0E36F"/>
    <path d="M140.017 109.535L135.998 90.2687H136.055H135.946L132.911 109.535H121.582L128.198 67.5453H139.527L136.712 85.4188H136.655H136.712L136.583 85.5285L136.602 85.4188H136.769L145.806 67.5453H157.749L145.501 87.8175L152.189 109.535H140.017V109.535Z" fill="#E0E36F"/>
    <path d="M6.61608 134.371H19.9481C26.6118 134.371 33.9318 137.265 32.5049 146.345C31.7581 151.08 28.1243 154.752 23.3489 154.752L23.3299 154.862C28.8139 155.306 31.2159 158.758 30.3265 164.385C29.5084 169.564 25.3275 176.36 15.2203 176.36H0L6.61608 134.371ZM13.703 167.285C16.2001 167.285 18.6163 166.059 19.0634 163.222C19.5105 160.38 17.5271 159.211 14.9207 159.211H14.0312L12.7613 167.285H13.703ZM16.0432 150.689C18.3738 150.689 20.6901 149.74 21.1229 147.013C21.5177 144.509 19.9624 143.45 17.6318 143.45H16.5188L15.3773 150.689H16.0432Z" fill="#E0E36F"/>
    <path d="M33.8795 176.36L40.4955 134.371H51.8251L46.7692 166.446H55.2687L53.7087 176.36H33.8795Z" fill="#E0E36F"/>
    <path d="M76.4773 176.36L76.4963 170.957H68.8862L67.093 176.36H55.4305L72.1015 134.371H85.9329L88.2017 176.36H76.4773ZM76.5677 162.049L76.8816 152.301C76.9625 149.683 77.1575 147.013 77.2954 144.395H77.186C76.4393 147.013 75.7401 149.683 74.8839 152.301L71.7923 162.049H76.5677Z" fill="#E0E36F"/>
    <path d="M119.536 146.679C118.171 145.119 116.978 144.228 114.647 144.228C108.759 144.228 106.29 150.742 105.562 155.363C104.792 160.265 105.253 166.503 110.918 166.503C113.472 166.503 115.242 165.501 117.339 163.827L114.823 175.578C112.388 176.579 110.252 177.08 107.755 177.08C98.4801 177.08 91.7071 170.008 93.9711 155.639C96.9391 136.817 110.323 133.641 115.822 133.641C117.819 133.641 119.722 133.918 121.439 134.642L119.536 146.679Z" fill="#E0E36F"/>
    <path d="M140.017 176.36L135.998 157.094H136.055H135.946L132.911 176.36H121.582L128.198 134.371H139.527L136.712 152.244H136.655H136.712L136.583 152.354L136.602 152.244H136.769L145.806 134.371H157.749L145.501 154.643L152.189 176.36H140.017Z" fill="#E0E36F"/>
    <path d="M171.566 99.1053L173.331 87.9224H169.797L168.032 99.1053H160.593L164.936 71.5464H172.375L170.819 81.413H174.353L175.909 71.5464H183.343L179 99.1053H171.566Z" stroke="#E0E36F" stroke-width="2"/>
    <path d="M197.493 71.0695C205.041 71.0695 206.806 78.5994 205.745 85.3234C204.685 92.0474 200.547 99.5774 192.998 99.5774C185.45 99.5774 183.685 92.0474 184.746 85.3234C185.807 78.5994 189.949 71.0695 197.493 71.0695ZM194.092 92.634C196.898 92.634 197.893 87.0402 198.159 85.3234C198.43 83.6066 199.201 78.0128 196.394 78.0128C193.588 78.0128 192.594 83.6066 192.328 85.3234C192.061 87.045 191.286 92.634 194.092 92.634Z" stroke="#E0E36F" stroke-width="2"/>
    <path d="M211.491 71.5464H218.564L221.888 88.1418L221.974 88.0702C222.183 84.8895 222.131 81.7468 222.635 78.566L223.743 71.5464H230.887L226.545 99.1053H219.401L216.366 83.2061L216.281 83.2776C216.052 85.8718 215.981 88.4327 215.567 91.0269L214.292 99.1053H207.148L211.491 71.5464Z" stroke="#E0E36F" stroke-width="2"/>
    <path d="M235.258 71.5464H249.076L248.048 78.051H241.67L241.066 81.8899H246.788L245.76 88.3945H240.038L239.377 92.5959H245.756L244.728 99.1005H230.911L235.258 71.5464Z" stroke="#E0E36F" stroke-width="2"/>
    <path d="M253.989 99.1053L255.834 87.4074L251.554 71.5464H259.283L260.491 80.0634H260.562L264.491 71.5464H272.182L263.264 87.4074L261.418 99.1053H253.989V99.1053Z" stroke="#E0E36F" stroke-width="2"/>
    <path d="M157.449 158.987C158.168 158.61 158.686 158.849 159.047 159.54C159.266 159.965 159.485 160.57 159.404 161.052C159.352 161.324 159.233 161.486 159.043 161.682C159.671 161.634 159.923 161.806 160.208 162.354C160.446 162.812 160.617 163.475 160.512 163.99C160.413 164.481 160.084 164.781 159.656 165.005L158.686 165.511L156.441 159.512L157.449 158.987ZM158.182 161.767C158.391 161.658 158.567 161.515 158.638 161.281C158.743 160.947 158.553 160.389 158.401 160.093C158.21 159.731 157.915 159.531 157.516 159.736L157.387 159.803L158.129 161.791L158.182 161.767ZM159.119 164.462C159.39 164.319 159.613 164.195 159.69 163.866C159.761 163.527 159.59 163.05 159.433 162.75C159.166 162.235 158.876 162.168 158.367 162.435L159.119 164.462Z" fill="white"/>
    <path d="M163.894 163.079L161.839 163.918L160.16 157.733L160.945 157.413L162.429 162.893L163.699 162.378L163.894 163.079Z" fill="white"/>
    <path d="M166.677 162.187L166.253 161.019L165.059 161.372L165.045 162.669L164.26 162.902L164.512 156.193L165.14 156.007L167.48 161.949L166.677 162.187ZM166.02 160.403C165.74 159.612 165.454 158.82 165.216 158.014C165.15 157.785 165.083 157.566 165.026 157.332C165.036 157.638 165.055 157.938 165.069 158.248C165.102 159.063 165.083 159.874 165.064 160.685L166.02 160.403Z" fill="white"/>
    <path d="M170.025 155.84C169.849 155.778 169.668 155.744 169.483 155.783C168.941 155.887 168.67 156.398 168.574 156.903C168.436 157.599 168.508 158.706 168.641 159.407C168.765 160.055 169.045 160.852 169.868 160.694C170.044 160.661 170.196 160.589 170.339 160.475L170.396 161.262C170.192 161.448 170.02 161.519 169.749 161.572C168.508 161.815 167.994 160.818 167.79 159.764C167.618 158.882 167.571 157.68 167.728 156.803C167.88 155.949 168.346 155.196 169.255 155.02C169.526 154.967 169.697 154.962 169.963 155.067L170.025 155.84Z" fill="white"/>
    <path d="M172.798 157.79L174.006 160.952L173.136 161.038L172.042 158.01L171.97 161.152L171.138 161.233L171.3 154.824L172.142 154.743L172.061 157.685L173.278 154.638L174.149 154.552L172.798 157.79Z" fill="white"/>
    <path d="M180.013 161.128L179.181 161.062L179.814 157.952L178.591 157.852L177.949 160.961L177.117 160.895L178.392 154.614L179.238 154.681L178.734 157.137L179.956 157.237L180.461 154.781L181.307 154.848L180.013 161.128Z" fill="white"/>
    <path d="M184.556 160.318C184.137 161.147 183.571 161.825 182.553 161.619C181.507 161.41 181.393 160.58 181.569 159.674C181.759 158.72 182.03 157.771 182.43 156.879C182.834 155.968 183.433 155.143 184.551 155.368C185.626 155.582 185.712 156.455 185.531 157.37C185.336 158.381 185.017 159.397 184.556 160.318ZM184.323 156.107C183.952 156.03 183.685 156.293 183.509 156.588C183.162 157.161 182.986 157.819 182.782 158.448C182.634 158.897 182.496 159.345 182.406 159.803C182.33 160.184 182.258 160.756 182.772 160.856C183.257 160.952 183.495 160.575 183.69 160.194C183.918 159.712 184.099 159.216 184.256 158.711C184.427 158.2 184.584 157.676 184.694 157.142C184.77 156.731 184.874 156.216 184.323 156.107Z" fill="white"/>
    <path d="M187.823 162.96L187.072 162.716L187.386 159.812C187.424 159.454 187.467 159.087 187.533 158.73C187.586 158.415 187.676 158.105 187.733 157.79C187.719 157.833 187.7 157.89 187.685 157.933C187.605 158.186 187.5 158.443 187.4 158.691C186.915 159.917 186.373 161.114 185.835 162.316L185.046 162.063L187.723 156.245L188.475 156.488L188.194 159.073C188.109 159.836 188.004 160.604 187.838 161.362L188.156 160.365C188.304 159.912 188.489 159.483 188.689 159.054L189.697 156.884L190.496 157.142L187.823 162.96Z" fill="white"/>
    <path d="M193.774 159.359L192.504 158.796L191.467 160.547L192.599 161.047L192.218 161.672L191.086 161.171L189.983 163.05L191.253 163.613L190.882 164.242L188.836 163.341L192.099 157.828L194.145 158.73L193.774 159.359Z" fill="white"/>
    <path d="M194.763 163.208L193.141 165.435L192.399 165.02L194.021 162.793L195.034 159.207L195.814 159.645L195.253 161.286C195.148 161.586 194.915 162.135 194.777 162.44C195.058 162.149 195.376 161.848 195.738 161.534L197.098 160.361L197.864 160.79L194.763 163.208Z" fill="white"/>
    <path d="M204.161 165.725C204.756 166.274 204.713 166.841 204.185 167.418C203.862 167.771 203.367 168.181 202.887 168.272C202.611 168.32 202.421 168.258 202.173 168.148C202.435 168.725 202.359 169.016 201.94 169.474C201.593 169.851 201.032 170.242 200.509 170.318C200.014 170.394 199.619 170.184 199.262 169.86L198.459 169.116L203.32 164.953L204.161 165.725ZM199.6 169.164C199.824 169.369 200.019 169.536 200.356 169.498C200.699 169.45 201.089 169.121 201.312 168.878C201.707 168.448 201.664 168.153 201.246 167.767L199.6 169.164ZM201.802 167.361C201.978 167.523 202.168 167.638 202.411 167.623C202.758 167.609 203.215 167.237 203.443 166.994C203.719 166.694 203.805 166.345 203.476 166.04L203.372 165.945L201.759 167.323L201.802 167.361Z" fill="white"/>
    <path d="M202.52 173.193L201.032 171.543L206.254 167.852L206.82 168.482L202.192 171.753L203.11 172.774L202.52 173.193Z" fill="white"/>
    <path d="M204.318 175.516L205.265 174.715L204.523 173.708L203.305 174.142L202.82 173.484L209.189 171.424L209.579 171.954L204.818 176.193L204.318 175.516ZM205.764 174.285C206.406 173.747 207.053 173.208 207.724 172.712C207.914 172.569 208.1 172.435 208.295 172.297C208.014 172.411 207.738 172.535 207.453 172.65C206.701 172.96 205.936 173.222 205.17 173.48L205.764 174.285Z" fill="white"/>
    <path d="M211.405 176.484C211.405 176.298 211.372 176.117 211.272 175.95C210.987 175.478 210.416 175.397 209.912 175.482C209.213 175.592 208.204 176.04 207.591 176.408C207.03 176.746 206.378 177.285 206.811 178.005C206.906 178.162 207.02 178.282 207.177 178.372L206.459 178.697C206.211 178.568 206.088 178.43 205.945 178.196C205.293 177.109 206.05 176.284 206.963 175.73C207.729 175.268 208.842 174.805 209.717 174.657C210.573 174.51 211.434 174.686 211.909 175.478C212.052 175.716 212.114 175.873 212.109 176.16L211.405 176.484Z" fill="white"/>
    <path d="M210.54 179.774L207.995 181.997L207.619 181.205L210.083 179.14L207.115 180.151L206.754 179.393L212.813 177.347L213.179 178.115L210.397 179.045L213.674 179.145L214.05 179.936L210.54 179.774Z" fill="white"/>
    <path d="M209.874 187.714L209.655 186.904L212.785 186.441L212.461 185.254L209.332 185.707L209.113 184.896L215.434 183.961L215.657 184.782L213.184 185.144L213.508 186.331L215.981 185.969L216.204 186.789L209.874 187.714Z" fill="white"/>
    <path d="M212.176 191.715C211.253 191.606 210.43 191.296 210.273 190.27C210.112 189.217 210.854 188.821 211.767 188.682C212.728 188.535 213.707 188.473 214.682 188.549C215.676 188.62 216.652 188.907 216.823 190.037C216.989 191.119 216.2 191.501 215.277 191.644C214.254 191.797 213.194 191.839 212.176 191.715ZM216.043 190.065C215.986 189.689 215.653 189.527 215.315 189.46C214.659 189.326 213.983 189.383 213.327 189.407C212.856 189.422 212.39 189.445 211.929 189.512C211.543 189.569 210.982 189.693 211.063 190.213C211.139 190.704 211.577 190.8 211.995 190.852C212.523 190.905 213.051 190.905 213.579 190.881C214.116 190.867 214.659 190.843 215.196 190.762C215.61 190.7 216.128 190.623 216.043 190.065Z" fill="white"/>
    <path d="M210.806 195.702L210.777 194.911L213.607 194.219C213.955 194.128 214.316 194.052 214.673 193.99C214.987 193.933 215.305 193.909 215.619 193.861C215.572 193.861 215.515 193.866 215.467 193.866C215.201 193.876 214.925 193.866 214.659 193.857C213.346 193.818 212.038 193.714 210.73 193.618L210.701 192.788L217.07 193.332L217.099 194.124L214.578 194.739C213.831 194.92 213.075 195.077 212.309 195.182L213.355 195.144C213.831 195.125 214.297 195.158 214.768 195.197L217.146 195.406L217.175 196.246L210.806 195.702Z" fill="white"/>
    <path d="M216.219 200.08L216.309 198.692L214.311 198.315L214.231 199.551L213.517 199.408L213.598 198.172L211.458 197.777L211.367 199.164L210.649 199.031L210.792 196.794L217.075 197.977L216.932 200.213L216.219 200.08Z" fill="white"/>
    <path d="M212.956 202.317L210.311 201.558L210.445 200.719L213.089 201.477L216.794 201.201L216.652 202.088L214.925 202.121C214.606 202.126 214.017 202.092 213.684 202.069C214.055 202.235 214.445 202.431 214.858 202.66L216.423 203.537L216.285 204.405L212.956 202.317Z" fill="white"/>
    <path d="M213.812 212.045C213.498 212.794 212.951 212.946 212.233 212.646C211.795 212.46 211.239 212.135 210.991 211.711C210.854 211.468 210.844 211.268 210.868 210.996C210.416 211.439 210.116 211.468 209.546 211.229C209.07 211.029 208.513 210.633 208.266 210.166C208.028 209.727 208.085 209.284 208.276 208.835L208.699 207.824L214.259 210.986L213.812 212.045ZM209.032 208.917C208.913 209.198 208.823 209.441 208.98 209.742C209.141 210.047 209.579 210.304 209.888 210.433C210.425 210.657 210.687 210.519 210.906 209.989L209.032 208.917ZM211.472 210.381C211.382 210.6 211.339 210.819 211.434 211.048C211.567 211.372 212.071 211.678 212.376 211.806C212.751 211.964 213.108 211.926 213.279 211.516L213.336 211.382L211.496 210.333L211.472 210.381Z" fill="white"/>
    <path d="M206.254 213.046L207.291 211.082L212.537 214.744L212.143 215.493L207.496 212.245L206.854 213.456L206.254 213.046Z" fill="white"/>
    <path d="M204.689 215.517L205.76 216.136L206.449 215.097L205.631 214.095L206.083 213.414L210.188 218.721L209.826 219.27L204.228 216.218L204.689 215.517ZM206.335 216.466C207.058 216.89 207.781 217.314 208.48 217.777C208.68 217.91 208.87 218.034 209.06 218.178C208.856 217.949 208.647 217.729 208.442 217.505C207.895 216.9 207.391 216.265 206.887 215.631L206.335 216.466Z" fill="white"/>
    <path d="M206.188 222.541C206.364 222.474 206.525 222.384 206.644 222.236C206.991 221.807 206.873 221.244 206.62 220.796C206.278 220.176 205.517 219.374 204.965 218.921C204.456 218.507 203.729 218.077 203.201 218.726C203.086 218.864 203.015 219.017 202.977 219.198L202.43 218.631C202.468 218.354 202.554 218.192 202.725 217.977C203.519 216.99 204.551 217.424 205.379 218.096C206.073 218.659 206.882 219.551 207.324 220.328C207.757 221.082 207.881 221.959 207.301 222.675C207.125 222.889 206.996 223.004 206.73 223.094L206.188 222.541Z" fill="white"/>
    <path d="M202.815 222.837L199.862 221.196L200.475 220.571L203.253 222.188L201.293 219.737L201.878 219.136L205.864 224.148L205.27 224.754L203.448 222.45L204.471 225.569L203.857 226.194L202.815 222.837Z" fill="white"/>
    <path d="M195.143 224.93L195.828 224.444L197.331 227.233L198.33 226.523L196.832 223.728L197.517 223.242L200.556 228.879L199.866 229.37L198.677 227.162L197.679 227.873L198.868 230.08L198.178 230.572L195.143 224.93Z" fill="white"/>
    <path d="M192.18 228.473C191.966 227.567 191.971 226.685 192.879 226.184C193.812 225.669 194.435 226.232 194.877 227.043C195.343 227.896 195.738 228.798 196.004 229.737C196.28 230.696 196.347 231.711 195.348 232.265C194.387 232.794 193.759 232.179 193.312 231.359C192.822 230.457 192.413 229.475 192.18 228.473ZM195.053 231.544C195.386 231.363 195.424 230.991 195.367 230.653C195.267 229.99 194.982 229.375 194.734 228.76C194.558 228.321 194.378 227.892 194.154 227.481C193.969 227.138 193.659 226.656 193.198 226.909C192.765 227.148 192.822 227.591 192.922 228.006C193.051 228.521 193.236 229.017 193.436 229.503C193.636 230.004 193.845 230.51 194.106 230.987C194.311 231.354 194.563 231.816 195.053 231.544Z" fill="white"/>
    <path d="M187.98 228.554L188.713 228.259L190.335 230.686C190.539 230.987 190.734 231.297 190.915 231.611C191.077 231.883 191.205 232.184 191.362 232.46C191.343 232.417 191.324 232.365 191.305 232.317C191.205 232.069 191.119 231.807 191.034 231.554C190.62 230.305 190.268 229.036 189.911 227.772L190.677 227.462L192.351 233.643L191.619 233.943L190.178 231.783C189.754 231.144 189.345 230.486 188.984 229.799L189.379 230.772C189.559 231.215 189.688 231.664 189.811 232.122L190.43 234.434L189.655 234.749L187.98 228.554Z" fill="white"/>
    <path d="M185.721 235.14L187.053 234.754L186.729 232.741L185.54 233.085L185.431 232.36L186.62 232.017L186.263 229.866L184.932 230.252L184.813 229.532L186.958 228.907L187.985 235.231L185.84 235.855L185.721 235.14Z" fill="white"/>
    <path d="M182.511 232.827L182.325 230.076L183.157 229.918L183.343 232.67L184.86 236.07L183.98 236.237L183.362 234.62C183.248 234.32 183.081 233.752 182.991 233.428C182.962 233.834 182.91 234.267 182.834 234.74L182.544 236.514L181.683 236.681L182.511 232.827Z" fill="white"/>
    <path d="M173.687 236.948C172.879 236.909 172.551 236.447 172.584 235.665C172.608 235.188 172.722 234.554 173.031 234.177C173.212 233.967 173.397 233.891 173.659 233.814C173.088 233.538 172.96 233.266 172.988 232.646C173.012 232.131 173.193 231.473 173.545 231.077C173.878 230.7 174.311 230.605 174.796 230.629L175.89 230.677L174.829 236.995L173.687 236.948ZM174.444 234.172C174.206 234.163 173.987 234.201 173.806 234.363C173.55 234.601 173.435 235.178 173.421 235.512C173.402 235.922 173.559 236.242 174.006 236.266L174.149 236.27L174.501 234.177L174.444 234.172ZM174.981 231.373C174.677 231.358 174.42 231.358 174.192 231.602C173.963 231.859 173.873 232.36 173.854 232.694C173.825 233.276 174.049 233.476 174.615 233.504L174.981 231.373Z" fill="white"/>
    <path d="M170.163 230.176L172.36 230.481L170.729 236.676L169.892 236.561L171.338 231.072L169.982 230.886L170.163 230.176Z" fill="white"/>
    <path d="M167.3 229.551L167.086 230.772L168.299 231.063L168.955 229.947L169.749 230.138L166.187 235.822L165.549 235.67L166.486 229.356L167.3 229.551ZM166.981 231.425C166.834 232.25 166.681 233.08 166.486 233.896C166.429 234.129 166.377 234.349 166.315 234.577C166.458 234.306 166.591 234.034 166.734 233.767C167.114 233.042 167.533 232.35 167.951 231.659L166.981 231.425Z" fill="white"/>
    <path d="M161.24 233.366C161.364 233.509 161.502 233.628 161.682 233.69C162.206 233.872 162.691 233.566 163.029 233.175C163.495 232.641 163.985 231.649 164.218 230.972C164.432 230.352 164.589 229.518 163.794 229.241C163.623 229.184 163.457 229.165 163.276 229.193L163.618 228.483C163.889 228.426 164.075 228.45 164.332 228.54C165.526 228.955 165.473 230.076 165.126 231.082C164.836 231.931 164.275 232.999 163.699 233.676C163.138 234.339 162.363 234.759 161.487 234.453C161.226 234.363 161.074 234.282 160.898 234.058L161.24 233.366Z" fill="white"/>
    <path d="M159.804 230.286L160.336 226.943L161.131 227.305L160.565 230.476L162.196 227.796L162.957 228.144L159.618 233.609L158.848 233.256L160.389 230.753L157.811 232.78L157.016 232.417L159.804 230.286Z" fill="white"/>
    <path d="M155.228 223.762L155.918 224.239L153.815 226.609L154.824 227.31L156.936 224.944L157.625 225.421L153.373 230.209L152.679 229.723L154.343 227.853L153.335 227.152L151.67 229.022L150.976 228.535L155.228 223.762Z" fill="white"/>
    <path d="M150.909 222.183C151.685 221.673 152.517 221.377 153.297 222.064C154.096 222.77 153.782 223.547 153.173 224.243C152.531 224.973 151.823 225.655 151.028 226.227C150.224 226.814 149.292 227.224 148.436 226.466C147.613 225.741 147.975 224.94 148.593 224.239C149.264 223.466 150.048 222.746 150.909 222.183ZM149.002 225.941C149.287 226.194 149.644 226.103 149.944 225.936C150.529 225.617 151.014 225.14 151.504 224.696C151.856 224.382 152.198 224.062 152.507 223.714C152.764 223.418 153.112 222.965 152.722 222.617C152.351 222.288 151.951 222.498 151.594 222.732C151.157 223.032 150.752 223.376 150.362 223.728C149.958 224.086 149.559 224.453 149.202 224.863C148.931 225.178 148.583 225.569 149.002 225.941Z" fill="white"/>
    <path d="M149.397 218.249L149.925 218.836L148.203 221.191C147.994 221.482 147.77 221.778 147.532 222.055C147.333 222.303 147.1 222.527 146.89 222.765C146.924 222.732 146.966 222.694 147.004 222.665C147.204 222.484 147.418 222.317 147.632 222.15C148.664 221.33 149.735 220.571 150.795 219.799L151.352 220.414L146.124 224.1L145.597 223.514L147.133 221.42C147.589 220.8 148.065 220.19 148.584 219.618L147.808 220.319C147.456 220.638 147.076 220.915 146.695 221.187L144.74 222.56L144.179 221.935L149.397 218.249Z" fill="white"/>
    <path d="M142.448 218.383L143.271 219.508L145.045 218.511L144.312 217.51L144.95 217.157L145.682 218.158L147.575 217.086L146.752 215.965L147.385 215.607L148.707 217.415L143.137 220.552L141.815 218.745L142.448 218.383Z" fill="white"/>
    <path d="M143.508 214.558L146.025 213.437L146.457 214.167L143.941 215.288L141.278 217.887L140.816 217.119L142.12 215.979C142.357 215.769 142.838 215.416 143.109 215.221C142.719 215.331 142.291 215.431 141.825 215.521L140.06 215.855L139.608 215.102L143.508 214.558Z" fill="white"/>
    <path d="M137.534 210.342C137.24 209.589 137.53 209.098 138.257 208.812C138.7 208.64 139.328 208.487 139.794 208.621C140.06 208.702 140.208 208.84 140.379 209.045C140.398 208.411 140.593 208.182 141.173 207.958C141.653 207.772 142.329 207.672 142.828 207.834C143.304 207.987 143.566 208.344 143.742 208.797L144.136 209.818L137.944 211.411L137.534 210.342ZM140.369 209.913C140.284 209.689 140.16 209.503 139.936 209.408C139.618 209.265 139.042 209.398 138.733 209.517C138.353 209.665 138.12 209.942 138.286 210.357L138.338 210.49L140.388 209.966L140.369 209.913ZM143.137 209.269C143.028 208.983 142.923 208.75 142.605 208.64C142.277 208.53 141.782 208.654 141.473 208.773C140.931 208.983 140.84 209.269 141.045 209.799L143.137 209.269Z" fill="white"/>
    <path d="M142.286 204.367L142.895 206.503L136.583 207.514L136.35 206.699L141.944 205.807L141.568 204.486L142.286 204.367Z" fill="white"/>
    <path d="M141.701 201.496L140.498 201.792L140.721 203.022L142.005 203.175L142.153 203.981L135.523 203.008L135.404 202.359L141.549 200.667L141.701 201.496ZM139.86 201.959C139.047 202.154 138.229 202.355 137.406 202.502C137.173 202.545 136.949 202.588 136.712 202.622C137.016 202.646 137.316 202.655 137.62 202.679C138.433 202.736 139.237 202.841 140.036 202.946L139.86 201.959Z" fill="white"/>
    <path d="M135.77 197.476C135.689 197.648 135.637 197.824 135.651 198.015C135.699 198.568 136.174 198.888 136.664 199.04C137.339 199.25 138.443 199.303 139.152 199.241C139.808 199.183 140.631 198.988 140.56 198.153C140.545 197.972 140.493 197.815 140.393 197.662L141.178 197.691C141.34 197.915 141.392 198.091 141.416 198.368C141.525 199.632 140.479 200.037 139.418 200.128C138.529 200.204 137.325 200.123 136.474 199.87C135.641 199.627 134.947 199.083 134.866 198.158C134.842 197.882 134.857 197.71 134.99 197.457L135.77 197.476Z" fill="white"/>
    <path d="M137.996 194.906L141.263 194.052L141.249 194.93L138.124 195.683L141.23 196.103L141.216 196.942L134.88 196.069L134.895 195.221L137.801 195.631L134.914 194.076L134.928 193.199L137.996 194.906Z" fill="white"/>
    <path d="M142.072 188.077L141.915 188.902L138.9 187.943L138.671 189.155L141.682 190.123L141.525 190.948L135.432 189.002L135.589 188.167L137.972 188.93L138.2 187.719L135.817 186.956L135.974 186.122L142.072 188.077Z" fill="white"/>
    <path d="M141.758 183.465C142.538 183.971 143.147 184.61 142.833 185.602C142.514 186.622 141.677 186.646 140.797 186.37C139.87 186.079 138.961 185.702 138.12 185.211C137.259 184.71 136.507 184.023 136.85 182.931C137.178 181.882 138.053 181.892 138.942 182.168C139.927 182.478 140.897 182.903 141.758 183.465ZM137.563 183.246C137.449 183.608 137.677 183.904 137.953 184.109C138.486 184.515 139.114 184.763 139.718 185.034C140.146 185.23 140.574 185.416 141.021 185.554C141.392 185.673 141.948 185.807 142.105 185.306C142.253 184.834 141.901 184.553 141.544 184.319C141.092 184.038 140.617 183.809 140.136 183.594C139.646 183.37 139.147 183.155 138.628 182.993C138.229 182.865 137.73 182.707 137.563 183.246Z" fill="white"/>
    <path d="M144.736 180.49L144.412 181.215L141.563 180.59C141.211 180.514 140.854 180.428 140.502 180.323C140.198 180.237 139.898 180.113 139.594 180.022C139.637 180.041 139.689 180.065 139.732 180.084C139.975 180.194 140.222 180.323 140.455 180.452C141.62 181.067 142.747 181.739 143.879 182.402L143.542 183.16L138.062 179.865L138.386 179.14L140.921 179.698C141.668 179.865 142.419 180.056 143.152 180.299L142.196 179.87C141.763 179.674 141.354 179.441 140.954 179.197L138.914 177.957L139.256 177.19L144.736 180.49Z" fill="white"/>
    <path d="M141.806 174.171L141.111 175.378L142.738 176.603L143.356 175.53L143.937 175.974L143.318 177.047L145.064 178.348L145.758 177.142L146.343 177.576L145.23 179.517L140.117 175.673L141.235 173.732L141.806 174.171Z" fill="white"/>
    <path d="M145.72 173.604L147.756 175.459L147.266 176.15L145.23 174.295L141.787 172.903L142.305 172.173L143.87 172.907C144.16 173.041 144.674 173.336 144.964 173.508C144.707 173.198 144.441 172.845 144.17 172.454L143.152 170.971L143.656 170.256L145.72 173.604Z" fill="white"/>
    </g>
    <defs>
    <clipPath id="clip0">
    <rect width="273" height="237" fill="white"/>
    </clipPath>
    </defs>
</svg>
